<svg width="62" height="62" viewBox="0 0 62 62" fill="none" xmlns="http://www.w3.org/2000/svg">
<path d="M46.1945 8.72195C46.3416 8.36467 46.0473 8.0284 46.0473 8.0284C46.0473 8.0284 43.7355 4.11924 35.6019 3.23653C31.2304 2.77416 25.3036 3.65687 21.1422 5.90568C13.5761 9.96195 12.4412 16.6664 12.4412 16.6664C12.3992 16.8345 12.3361 17.3389 12.5043 17.5491C12.6724 17.7592 12.9246 17.7592 13.2399 17.6542C15.909 16.7504 23.8324 14.1233 28.8344 12.7992C35.9592 10.9077 41.8229 9.75178 45.5639 9.12128C45.8582 9.05823 46.0894 8.97416 46.1945 8.72195Z" fill="white"/>
<path d="M54.3288 40.2895C50.0624 49.8732 41.8868 56.5356 31.1471 56.6827C23.3498 56.7878 16.4563 54.1186 11.4753 49.4529L8.46983 50.7349V46.0692C5.19119 41.6556 3.27865 36.0441 3.27865 29.697C3.27865 13.4088 15.7417 0.588475 33.1437 0.588475C35.981 0.588475 38.5451 1.02983 40.4787 1.47119C37.4943 0.525424 34.5309 0 31.2312 0C12.5681 0 0 15.1322 0 30.7478C0 47.7505 13.3458 62 30.8529 62C47.5824 62 56.5987 50.2095 59.499 43.1058L54.3288 40.2895Z" fill="white"/>
<path d="M49.9985 36.9268C52.4575 36.6535 54.1598 35.6658 55.0846 34.741C55.9253 33.9003 56.1354 32.7654 56.1354 31.9037C56.1775 30.6427 56.1354 26.6915 56.1354 26.6915L49.6412 28.0996C49.6412 28.0996 49.6412 28.583 49.6412 29.6129C49.6622 30.6217 50.1456 31.1681 51.1964 30.979C51.5327 30.9159 52.0371 30.7688 52.0371 30.7688V32.0088C52.0371 31.9668 52.1422 32.7024 50.5029 33.0176C48.3592 33.3539 47.3924 32.0298 47.3714 29.6969C47.4134 27.1959 48.8215 25.7668 50.5449 25.3674C52.4785 24.9261 53.5714 25.3885 54.2019 25.4725C56.3456 25.7878 56.9551 22.5722 55.0005 21.8156C53.5503 21.2271 51.6798 21.122 49.8934 21.4793C47.4975 21.9627 42.8107 23.9593 42.7896 30.4535C42.7686 35.6237 46.5727 37.3051 49.9985 36.9268Z" fill="white"/>
<path d="M28.8777 42.4543C28.8777 42.4543 30.8743 41.7607 31.0425 41.7187C32.6398 41.1722 33.2282 40.2054 33.2282 38.5661C33.2072 36.7797 33.2072 33.2909 33.2072 33.2909L37.852 38.6292C38.6086 39.4068 39.5543 39.4698 40.416 39.2176C41.2988 38.9654 42.0554 38.1458 42.0764 36.9898C42.0764 33.1437 42.0764 23.7281 42.0764 23.7281C42.0764 23.7281 40.8784 23.9804 39.8906 24.2536C38.7557 24.5688 37.873 25.3044 37.873 27.238C37.873 27.9105 37.873 31.8407 37.873 31.8407C37.873 31.8407 35.2249 28.541 33.5225 26.8387C32.6187 25.9349 31.1055 26.4814 31.1055 26.4814L28.8777 27.1539V42.4543Z" fill="white"/>
<path d="M27.4691 27.4901C27.4691 27.4901 26.082 27.8894 24.9471 28.3098C23.4759 28.8352 22.6142 29.6969 22.6142 31.9247C22.6142 33.9844 22.6142 44.6399 22.6142 44.6399C22.6142 44.6399 23.8963 44.1986 25.1152 43.7362C26.8176 43.0847 27.4691 42.202 27.4691 40.4155C27.4691 38.8813 27.4691 27.4901 27.4691 27.4901Z" fill="white"/>
<path d="M20.5546 30.5166C19.2726 29.9281 18.1797 30.5797 17.7174 31.2943L13.7872 37.9987V32.5973L9.12143 34.5098L9.10041 49.7682L12.3791 48.4021C12.3791 48.4021 13.0306 48.2129 13.4089 47.6034C13.7662 47.036 13.7452 46.1112 13.7452 46.1112V41.2773L17.4021 45.1654C18.2007 46.0061 19.6719 46.4265 20.975 45.3756C22.1519 44.4298 21.9628 42.8115 21.3113 42.0759L17.9906 38.7343C17.9906 38.7343 20.9119 34.1105 21.3953 33.3539C22.0258 32.3031 21.7106 31.042 20.5546 30.5166Z" fill="white"/>
<path d="M18.7255 48.465C18.5573 48.8643 18.9567 49.2636 18.9567 49.2636C20.638 51.3863 28.1411 54.0765 36.2956 52.1009C48.7377 49.0955 51.3648 40.2894 51.659 39.0494C51.7221 38.7972 51.7641 38.3979 51.5329 38.1457C51.3438 37.9355 51.0495 37.9355 50.6712 38.0196C42.0123 40.0582 27.6577 44.4508 19.356 48.0026C18.9987 48.1497 18.8516 48.2128 18.7255 48.465Z" fill="white"/>
<path d="M11.3487 28.457C11.3277 27.6163 10.6761 27.1539 9.56223 27.7214V30.4326C9.56223 30.4326 9.91952 30.2644 10.1927 30.1383C10.8653 29.8231 11.3697 29.2766 11.3487 28.457ZM9.54122 25.998C9.75139 25.9139 9.8985 25.8509 10.0666 25.7668C10.6761 25.4726 11.1175 24.9051 11.1175 24.1905C11.1175 23.3709 10.4449 23.1607 9.54122 23.6231C9.54122 23.6441 9.54122 25.998 9.54122 25.998ZM14.3331 28.0576C14.3751 30.2014 12.8409 31.3363 10.8233 32.1559L6.72495 33.9004V22.7824C6.72495 22.7824 9.31003 21.7315 10.1507 21.4163C12.5466 20.5336 13.9548 21.6054 13.9548 23.2027C13.9548 24.2746 13.4924 25.1783 12.5046 25.977C13.4714 26.1451 14.3121 26.9437 14.3331 28.0576Z" fill="white"/>
<path d="M22.1094 18.684C22.1094 17.7383 21.4578 17.5071 20.6802 17.7172C20.0497 17.9064 19.3141 18.1796 19.3141 18.1796V25.0942C19.3141 25.7877 19.209 26.6494 18.3473 26.8596C17.6958 27.0278 17.3805 26.5864 17.3805 25.8928V20.2393C17.3805 19.2935 16.729 19.0203 15.9514 19.2725C15.0687 19.5667 14.5643 19.7769 14.5643 19.7769C14.5643 19.7769 14.5643 24.6738 14.5643 26.6284C14.5433 28.9193 16.1405 30.0752 18.5365 29.3606C20.6592 28.7301 22.0883 27.5322 22.1094 24.4847V18.684Z" fill="white"/>
<path d="M44.9336 21.5424C45.5431 21.4163 45.9214 20.975 45.9214 20.2184C45.9214 19.5458 45.9214 19.0204 45.9214 19.0204L42.6008 19.756V17.8014C42.6008 17.8014 44.2401 17.4652 44.6814 17.3601C45.2489 17.234 45.5431 16.9187 45.5431 16.2672C45.5431 15.6577 45.5431 15.1323 45.5431 15.1323L42.6008 15.7628V14.2075C42.6008 14.2075 44.135 13.8923 44.9547 13.7241C45.6062 13.598 45.8163 13.1567 45.8163 12.5472C45.8163 12.1479 45.8163 11.3702 45.8163 11.3702C44.3452 11.6224 41.5499 12.1899 39.8055 12.5892L39.7845 22.7194C39.7845 22.7194 43.1052 21.9418 44.9336 21.5424Z" fill="white"/>
<path d="M25.6831 21.122C25.6831 21.122 27.3224 20.2603 27.3224 18.9152C27.3014 17.7593 26.2506 18.0115 25.7041 18.2216L25.6831 21.122ZM25.7041 22.6983C25.7041 22.6983 25.7041 24.6318 25.7041 25.4305C25.7041 26.166 25.1997 26.6915 24.5692 26.9437C24.5692 26.9647 24.5692 26.9227 24.5692 26.9437C24.0438 27.1328 22.9089 27.5111 22.9089 27.5111V17.0657C22.9089 17.0657 25.2417 16.246 26.6078 15.9308C28.7095 15.4264 30.2228 16.3932 30.2017 18.1166C30.1807 19.7559 29.277 20.7437 28.4573 21.4372L30.2648 23.1606C30.8112 23.7071 30.8533 24.6738 30.2438 25.2623C29.8655 25.6196 28.8777 25.9769 28.1211 25.1783C28.1 25.1783 25.7041 22.6983 25.7041 22.6983Z" fill="white"/>
<path d="M49.264 15.5105C49.264 15.5105 50.8823 14.901 50.8612 13.598C50.8402 12.5051 49.7684 12.6943 49.2429 12.8204L49.264 15.5105ZM46.5318 21.2271V11.2231C46.5318 11.2231 49.4531 10.6976 50.2097 10.6136C52.3114 10.3404 53.7196 11.5173 53.6775 13.1566C53.6565 14.6068 52.7528 15.4895 51.9751 16.0149C51.9751 16.0149 53.4043 17.6122 53.7826 18.0536C54.287 18.621 54.266 19.6088 53.5094 20.0922C52.7738 20.5546 52.0172 20.3234 51.5968 19.84L49.264 17.0658C49.264 17.0658 49.264 18.7682 49.264 19.5037C49.264 20.2393 48.8226 20.7858 48.066 20.9329L46.5318 21.2271Z" fill="white"/>
<path d="M39.1329 17.0237L34.9926 17.9695C34.9926 17.9695 34.9926 18.4108 34.9926 19.1254C34.9926 19.6718 35.3709 20.0081 35.9173 19.903C36.2536 19.84 36.5268 19.7769 36.5268 19.7769V20.9329C36.5268 21.3952 35.8543 21.6895 35.1397 21.6685C34.1309 21.6264 33.5844 20.8488 33.5634 19.3776C33.5844 17.444 34.5092 16.3091 35.7492 15.9939C36.3587 15.8257 36.9261 15.9098 37.3675 15.9729C38.4393 16.141 39.0488 15.6366 39.0699 14.7539C39.0909 13.8081 38.2502 13.2196 36.4637 13.2827C32.5546 13.4088 30.558 16.2251 30.558 19.5668C30.558 22.9925 32.8068 24.5057 35.539 24.0224C37.0732 23.7071 37.8509 23.2027 38.3763 22.7403C38.9017 22.2779 39.1329 21.5844 39.1329 20.9749V17.0237Z" fill="white"/>
<path d="M22.8031 5.82166C18.2215 7.83928 15.132 12.6522 14.9638 14.6698C14.9008 15.4684 15.9726 15.5945 16.0777 14.7328C17.0445 11.0339 19.9869 7.54505 22.8031 5.82166Z" fill="white"/>
<path d="M37.9567 9.26846C40.4156 8.65897 41.7817 8.5749 41.8028 7.461C41.8448 5.61151 36.5906 3.46778 31.7567 3.8671C36.6746 4.20337 39.617 6.0949 39.617 7.39795C39.638 8.23863 38.9024 8.97422 37.9567 9.26846Z" fill="white"/>
<path d="M39.4701 50.0414C43.1691 48.5912 46.721 45.7959 48.6966 41.6346C49.264 40.4366 47.6247 39.8061 47.1623 41.2353C46.0064 44.1987 43.6525 47.6665 39.4701 50.0414Z" fill="white"/>
<path d="M58.1121 37.5362H58.6165C58.8898 37.5362 59.2471 37.5782 59.2471 37.9145C59.2471 38.2928 58.9949 38.3348 58.6586 38.3348H58.1332L58.1121 37.5362ZM57.5026 40.0792H58.0911V38.7972H58.4694L59.205 40.0792H59.8355L59.0369 38.7552C59.4782 38.7131 59.8355 38.503 59.8355 37.9565C59.8355 37.305 59.4152 37.0528 58.6586 37.0528H57.5026V40.0792ZM55.8213 38.566C55.8213 40.2053 57.1243 41.2772 58.5955 41.2772C60.0667 41.2772 61.3698 40.2264 61.3698 38.566C61.3698 36.9267 60.0667 35.8759 58.5955 35.8759C57.1243 35.8759 55.8213 36.9267 55.8213 38.566ZM56.5569 38.566C56.5569 37.347 57.4606 36.4433 58.5955 36.4433C59.7094 36.4433 60.6342 37.326 60.6342 38.566C60.6342 39.806 59.7094 40.6887 58.5955 40.6887C57.4606 40.7098 56.5569 39.806 56.5569 38.566Z" fill="white"/>
</svg>
