<svg width="124" height="26" viewBox="0 0 124 26" fill="none" xmlns="http://www.w3.org/2000/svg">
<path fill-rule="evenodd" clip-rule="evenodd" d="M5.10398 17.8434C4.87085 17.1704 4.76685 16.3159 4.76685 15.1771C4.76685 14.0374 4.87085 13.1837 5.10398 12.5103C5.72581 10.595 7.35817 9.53334 9.50967 9.53334C11.1165 9.53334 12.361 10.1807 13.216 11.216C13.2559 11.2596 13.2758 11.318 13.2709 11.377C13.266 11.436 13.2366 11.4902 13.19 11.5267L11.7903 12.7695C11.6863 12.8475 11.5572 12.8475 11.4796 12.7175C10.9358 12.1221 10.3919 11.7858 9.51054 11.7858C8.552 11.7858 7.82617 12.2516 7.51504 13.1837C7.35904 13.7271 7.30704 14.3485 7.30704 15.1771C7.30704 16.0047 7.35904 16.6526 7.54104 17.1964C7.85304 18.1021 8.578 18.5943 9.53697 18.5943C10.4179 18.5943 10.9886 18.2576 11.5069 17.6627C11.5849 17.5587 11.7149 17.5587 11.818 17.6367L13.2177 18.879C13.3217 18.957 13.2957 19.0862 13.2437 19.1897C12.3883 20.1994 11.1442 20.8463 9.5374 20.8463C7.38634 20.8203 5.72754 19.7847 5.10571 17.8434H5.10398ZM53.2047 17.8434C52.9716 17.1704 52.8676 16.3159 52.8676 15.1771C52.8676 14.0374 52.9716 13.1837 53.2047 12.5103C53.8266 10.595 55.4594 9.53334 57.6104 9.53334C59.2172 9.53334 60.4878 10.1807 61.3167 11.216C61.3567 11.2596 61.3766 11.318 61.3717 11.377C61.3667 11.436 61.3374 11.4902 61.2907 11.5267L59.8911 12.7695C59.7871 12.8475 59.6579 12.8475 59.5804 12.7175C59.0365 12.1221 58.4927 11.7858 57.6113 11.7858C56.6528 11.7858 55.9269 12.2516 55.6158 13.1837C55.4351 13.7271 55.3818 14.3485 55.3818 15.1771C55.3818 16.0047 55.4351 16.6526 55.6158 17.1964C55.9278 18.1021 56.6532 18.5943 57.6117 18.5943C58.4927 18.5943 59.0634 18.2576 59.5817 17.6627C59.6597 17.5587 59.7897 17.5587 59.8928 17.6367L61.2925 18.879C61.3965 18.957 61.3705 19.0862 61.3185 19.1897C60.4631 20.1994 59.219 20.8463 57.6122 20.8463C55.4611 20.8203 53.8283 19.7847 53.2065 17.8434H53.2047ZM109.6 20.5617C109.471 20.5617 109.368 20.4837 109.368 20.3285V14.1154C109.368 12.7175 108.668 11.7598 107.346 11.7598C106.05 11.7598 105.299 12.7175 105.299 14.1154V20.3285C105.299 20.4585 105.221 20.5617 105.066 20.5617H103.018C102.888 20.5617 102.785 20.4837 102.785 20.3285V14.1154C102.785 12.7175 102.085 11.7598 100.763 11.7598C99.4673 11.7598 98.7155 12.7175 98.7155 14.1154V20.3285C98.7155 20.4585 98.6388 20.5617 98.4832 20.5617H96.4357C96.3057 20.5617 96.2017 20.4837 96.2017 20.3285V9.99917C96.2017 9.87004 96.2797 9.76647 96.4357 9.76647H98.4828C98.6128 9.76647 98.7159 9.84447 98.7159 9.99917V10.7761H98.7419C99.209 10.1032 100.142 9.53334 101.567 9.53334C102.837 9.53334 103.848 10.0512 104.497 10.9573H104.523C105.351 10.0516 106.414 9.53334 107.943 9.53334C110.431 9.53334 111.831 11.242 111.831 13.546V20.3545C111.831 20.4845 111.753 20.5877 111.597 20.5877L109.602 20.5617H109.6ZM114.722 24.3672C114.592 24.3672 114.488 24.2892 114.488 24.134V22.3478C114.488 22.2178 114.566 22.1151 114.722 22.1151H115.111C115.966 22.1151 116.381 21.7264 116.718 20.8463L117.029 19.9407L113.115 9.76604C113.064 9.63691 113.167 9.53334 113.297 9.53334H115.501C115.631 9.53334 115.734 9.61134 115.76 9.76647L118.17 16.8081H118.222L120.529 9.76647C120.581 9.63648 120.659 9.53334 120.787 9.53334H122.887C123.016 9.53334 123.12 9.61134 123.068 9.76647L119.025 21.0275C118.092 23.5902 117.211 24.3932 115.423 24.3932L114.723 24.3672H114.722ZM21.5238 17.1695C21.7058 16.6006 21.7569 16.0819 21.7569 15.1762C21.7569 14.2705 21.7049 13.7787 21.5238 13.1829C21.2127 12.2772 20.5128 11.7854 19.5283 11.7854C18.5433 11.7854 17.818 12.3032 17.5068 13.1833C17.3248 13.7527 17.2728 14.245 17.2728 15.1766C17.2728 16.0823 17.3248 16.6006 17.5068 17.17C17.818 18.0756 18.5178 18.5683 19.5283 18.5683C20.5128 18.5943 21.2127 18.0761 21.5238 17.17V17.1695ZM15.0966 17.8429C14.8635 17.0924 14.7335 16.3679 14.7335 15.1766C14.7335 13.9858 14.8375 13.2873 15.0966 12.5103C15.6925 10.621 17.3248 9.53334 19.5023 9.53334C21.6534 9.53334 23.2862 10.621 23.882 12.5103C24.116 13.2609 24.2451 13.9858 24.2451 15.1766C24.2451 16.3683 24.1411 17.066 23.882 17.8429C23.2862 19.7323 21.6534 20.8199 19.5023 20.8199C17.3513 20.8199 15.7185 19.7323 15.0966 17.8429ZM67.2915 9.53334C65.5287 9.53334 64.3622 9.94761 63.5072 10.595C63.4292 10.673 63.4032 10.7761 63.4552 10.8793L64.2846 12.3552C64.3613 12.4583 64.4913 12.4843 64.5945 12.4072C65.1132 11.9929 65.8381 11.6562 67.0306 11.6562C68.7674 11.6562 69.3637 12.1728 69.4153 13.3376V16.9364C69.4153 18.1788 68.5603 18.7737 67.0311 18.7737C65.8394 18.7737 65.1916 18.3343 65.1916 17.4282C65.1916 16.4186 65.891 15.9787 67.4978 15.9787H67.9905C68.1196 15.9787 68.2236 15.9007 68.2236 15.746V14.3221C68.2236 14.193 68.1456 14.089 67.9905 14.089H67.1091C64.4658 14.089 62.833 15.1766 62.833 17.5062C62.833 19.7583 64.4658 20.7944 66.4352 20.7944C67.9389 20.7944 68.9486 20.2765 69.4417 19.5516H69.4677V20.3281C69.4677 20.4581 69.5457 20.5612 69.7017 20.5612H71.5676C71.6976 20.5612 71.8016 20.4832 71.8016 20.3281V13.3124C71.7479 10.673 70.5554 9.53334 67.2906 9.53334H67.2915ZM41.0506 14.0894C40.9986 14.0894 40.9466 14.1154 40.9466 14.1934V15.876C40.9466 15.928 40.9726 15.98 41.0506 15.98H46.5453C46.7004 15.98 46.7784 15.902 46.7784 15.7469C46.7784 14.0118 46.6744 13.2613 46.4153 12.5099C45.819 10.6726 44.2122 9.53291 42.0092 9.53291C39.8841 9.53291 38.2262 10.6206 37.6295 12.5099C37.3968 13.2102 37.2668 14.0638 37.2668 15.1775C37.2668 16.2903 37.4228 17.1188 37.6555 17.8178C38.2517 19.7071 39.8585 20.8208 42.1132 20.8208C44.0827 20.8208 45.5859 20.0698 46.5189 18.9835C46.5969 18.8795 46.5969 18.7495 46.4929 18.6723L45.1972 17.5067C45.0945 17.4287 44.9649 17.4287 44.8614 17.5587C44.3171 18.1536 43.5657 18.5943 42.3472 18.5943C41.1555 18.5943 40.2997 18.0241 39.963 16.9628C39.911 16.8068 39.859 16.6521 39.833 16.4966C39.7436 15.9836 39.7006 15.4637 39.7043 14.9431C39.7303 14.3217 39.7563 13.9334 39.8343 13.4416V13.3896C39.8603 13.2609 39.8854 13.1573 39.9114 13.0537C40.1974 12.1732 41.0004 11.6558 42.0109 11.6558C43.0219 11.6558 43.7997 12.1723 44.0844 13.0529C44.1729 13.3465 44.2164 13.6519 44.2135 13.9585C44.2135 14.0365 44.1615 14.0885 44.0835 14.0885H41.0524L41.0506 14.0894ZM35.2006 5.20002H33.1532C33.0232 5.20002 32.92 5.27802 32.92 5.43315V15.6069C32.894 16.2283 32.816 16.6426 32.712 17.0049C32.426 17.9105 31.7271 18.3772 30.7161 18.3772C29.7311 18.3772 29.0313 17.8841 28.7466 17.0036C28.5906 16.5122 28.5126 15.9679 28.5126 14.9842C28.5126 14.0006 28.5906 13.4572 28.7466 12.9649C29.0309 12.0852 29.7043 11.5934 30.6641 11.5674H31.5468C31.5979 11.5674 31.6239 11.5154 31.6239 11.4643V9.41894C31.6239 9.36694 31.5979 9.34094 31.5459 9.31494H30.0171C28.2292 9.34094 26.9331 10.1955 26.3888 11.9041C26.1297 12.7326 26.0001 13.4832 26.0001 14.9331C26.0001 16.3826 26.1041 17.1336 26.3888 17.9621C26.9331 19.6963 28.2808 20.5508 30.0951 20.5508C31.5468 20.5508 32.4273 20.007 32.9205 19.282H32.9464V20.0837C32.9464 20.2137 33.0236 20.3177 33.1791 20.3177H35.2266C35.3566 20.3177 35.4598 20.2397 35.4598 20.0837V5.33002C35.4338 5.27802 35.3298 5.20089 35.2006 5.20089V5.20002ZM88.7172 14.0894C88.6652 14.0894 88.6132 14.1154 88.6132 14.1934V15.876C88.6132 15.928 88.6392 15.98 88.7172 15.98H94.2119C94.367 15.98 94.445 15.902 94.445 15.7469C94.445 14.0118 94.341 13.2613 94.0819 12.5099C93.4856 10.6726 91.8788 9.53291 89.6757 9.53291C87.5507 9.53291 85.8927 10.6206 85.296 12.5099C85.0629 13.2097 84.9333 14.0634 84.9333 15.1771C84.9333 16.2899 85.0893 17.1184 85.322 17.8174C85.9183 19.7067 87.5251 20.8204 89.7797 20.8204C91.7492 20.8204 93.2525 20.0694 94.1854 18.983C94.2634 18.879 94.2634 18.749 94.1594 18.6719L92.8651 17.5062C92.7611 17.4282 92.6311 17.4282 92.5279 17.5582C91.9837 18.1536 91.2323 18.5939 90.0137 18.5939C88.8221 18.5939 87.9662 18.0241 87.6295 16.9628C87.5775 16.8068 87.5255 16.6521 87.4995 16.4966C87.4102 15.9838 87.3671 15.464 87.3708 14.9435C87.3968 14.3221 87.4228 13.9338 87.5008 13.442V13.39C87.5268 13.2617 87.552 13.1582 87.578 13.0546C87.864 12.1741 88.6669 11.6567 89.6775 11.6567C90.6884 11.6567 91.4663 12.1736 91.751 13.0542C91.8395 13.3478 91.883 13.6532 91.8801 13.9598C91.8801 14.0378 91.8281 14.0898 91.7501 14.0898H88.7189L88.7172 14.0894ZM82.8672 5.20002H80.8197C80.6897 5.20002 80.5866 5.27802 80.5866 5.43315V15.6329C80.5606 16.2539 80.4826 16.6686 80.3786 17.0309C80.0926 17.9365 79.3936 18.4288 78.3827 18.4288C77.3717 18.4288 76.6979 17.9365 76.4132 17.0309C76.2572 16.539 76.1792 15.9952 76.1792 15.0115C76.1792 14.0279 76.2572 13.484 76.4132 12.9922C76.6974 12.1125 77.3708 11.6198 78.3307 11.5943H79.2116C79.3408 11.5943 79.4443 11.5163 79.4443 11.3611V9.57494C79.4443 9.44494 79.3663 9.34181 79.2112 9.34181H77.7075C75.9192 9.36781 74.5975 10.2223 74.0532 11.9305C73.7941 12.7591 73.6645 13.51 73.6645 14.9855C73.6645 16.4355 73.7685 17.212 74.0532 18.0405C74.5975 19.7747 75.9452 20.6292 77.7595 20.6292C79.2112 20.6292 80.0917 20.0854 80.6108 19.3609H80.636V20.1626C80.636 20.2926 80.714 20.3953 80.8691 20.3953H82.9166C83.0466 20.3953 83.1506 20.3173 83.1506 20.1621V5.40672C83.0986 5.27672 82.9946 5.19958 82.8655 5.19958L82.8672 5.20002ZM53.3001 23.8333V25.5666C53.3001 25.8925 53.3759 26 53.7334 26H60.6667C60.9991 26 61.1001 25.9194 61.1001 25.5666V23.8333C61.1001 23.5074 61.0242 23.4 60.6667 23.4H53.3001C53.3759 23.4 53.3001 23.4806 53.3001 23.8333Z" fill="white"/>
<path fill-rule="evenodd" clip-rule="evenodd" d="M3.02899 23.4H2.59999C2.65199 23.374 2.59999 23.2968 2.59999 23.4V2.59999C2.59999 2.70313 2.65199 2.62599 2.59999 2.59999H48.9666C48.9146 2.62599 48.9666 2.70313 48.9666 2.59999V22.9666C48.9666 23.2713 48.9146 23.348 48.9666 23.4H3.02899ZM51.5666 0C51.5146 0.0779998 51.5146 0.0519999 51.5666 0C51.5146 0.0519999 51.5146 0.0519999 51.5666 0C51.4626 0.0259999 51.4106 0 51.1332 0H0C0.0519999 0.0519999 0 0.13 0 0.433332V25.9999C0 25.8699 0.0259999 25.9219 0 25.9999H51.1332C51.4106 25.9999 51.4626 25.9739 51.5666 25.9999C51.5406 25.8959 51.5666 25.8439 51.5666 25.5666V0Z" fill="white"/>
</svg>
