<svg width="62" height="62" viewBox="0 0 62 62" fill="none" xmlns="http://www.w3.org/2000/svg">
<path fill-rule="evenodd" clip-rule="evenodd" d="M31 0C13.8808 0 0.00227647 13.8767 2.8002e-07 30.9959C-0.00227591 48.1151 13.8725 61.9954 30.9917 62C48.111 62.0045 61.9932 48.1316 62 31.0124C62 13.8895 48.1228 0.00683001 31 0Z" fill="white"/>
<path fill-rule="evenodd" clip-rule="evenodd" d="M29.0761 31.8721L23.6022 26.3982L17.2933 32.7194V34.8409L18.8829 33.2452L23.2868 37.6614L21.6601 39.2819L22.7177 40.3457L31.5254 31.5257V29.4104L29.0761 31.8721Z" fill="black"/>
<path fill-rule="evenodd" clip-rule="evenodd" d="M3.52478 25.2478H13.2726V27.3508H11.6459V34.1544L17.2929 31.0124V36.7707H3.52478V34.6554H5.15766V27.3508H3.52478V25.2478ZM44.6251 25.2478V27.3508H46.258V34.6554H44.6251V36.7707H58.4057V31.0124L52.7524 34.1544V27.3508H54.3853V25.2478H44.6251Z" fill="black"/>
<path fill-rule="evenodd" clip-rule="evenodd" d="M22.7983 18.6978C24.2029 18.6978 25.4689 19.5446 26.0053 20.8427C26.5416 22.1408 26.2425 23.6342 25.2475 24.6256C24.2526 25.617 22.7581 25.9108 21.4619 25.3698C20.1657 24.8289 19.3235 23.5598 19.3285 22.1553C19.3285 21.2362 19.6944 20.3549 20.3455 19.7061C20.9966 19.0573 21.8792 18.6945 22.7983 18.6978Z" fill="black"/>
<path fill-rule="evenodd" clip-rule="evenodd" d="M39.1951 25.2478H29.9174V27.3508H31.5441V34.6554H29.8988V36.7707H39.1765C46.0668 36.7707 46.1534 25.2478 39.1951 25.2478Z" fill="black"/>
<path fill-rule="evenodd" clip-rule="evenodd" d="M37.8895 33.1648H37.4256V28.8352H37.8152C39.8501 28.8352 39.8501 33.1648 37.8895 33.1648Z" fill="white"/>
</svg>
