<svg width="94" height="31" viewBox="0 0 94 31" fill="none" xmlns="http://www.w3.org/2000/svg">
<path d="M7.06078 21.7779L15.8068 23.6413V7.28514L7.06078 9.14137V21.7779ZM18.4106 27.0431L4.96414 23.4089V7.50479L18.3906 3.89697L18.4098 27.0439L18.4106 27.0431Z" fill="white"/>
<path d="M12.8953 0L0 4.6773V26.2619L12.8953 30.94V0ZM2.29792 24.9943V5.94647L10.3203 3.47044V27.4696L2.29792 24.9935V24.9943Z" fill="white"/>
<path d="M12.8953 7.90178L14.1677 7.63261V5.03198L12.8953 5.37304V7.90178ZM12.8953 25.5519L14.1677 25.8953V23.2923L12.8953 23.0207V25.5519Z" fill="white"/>
<path d="M67.6671 22.6373H70.1176V12.1109H67.6671V22.6373ZM79.9402 17.444C79.9402 19.5973 78.846 20.9464 77.0233 20.9464C75.1607 20.9464 74.0872 19.5973 74.0872 17.444V17.2835C74.0872 15.1101 75.2006 13.801 77.0233 13.801C78.846 13.801 79.9402 15.1301 79.9402 17.3034V17.444ZM77.0233 11.8897C73.9043 11.8897 71.576 14.0622 71.576 17.3234V17.4847C71.576 20.6852 73.8843 22.8385 77.0033 22.8385C80.1215 22.8385 82.4506 20.7044 82.4506 17.424V17.2635C82.4506 14.0431 80.1215 11.8897 77.0233 11.8897ZM89.7221 11.8897C87.9809 11.8897 86.806 12.7547 86.2996 13.7811V12.1117H83.8491V22.6373H86.2996V16.4376C86.2996 14.7683 87.413 13.9216 88.79 13.9216C90.2485 13.9216 90.8962 14.6461 90.8962 16.2371V22.6373H93.3467V16.0159C93.3467 13.1165 91.8483 11.8897 89.7221 11.8897ZM67.6671 10.6669H70.1176V8.23157H67.6671V10.6669Z" fill="white"/>
<path d="M31.8722 14.0838C29.361 13.7212 28.8746 13.1373 28.8746 11.9704C28.8746 10.8633 29.7252 10.0782 31.3658 10.0782C33.0039 10.0782 33.8706 10.7092 34.1453 12.1748L36.5143 11.5351C36.0031 9.23955 34.2084 8.06543 31.3658 8.06543C28.3482 8.06543 26.3234 9.83619 26.3234 12.1916C26.3234 14.8881 27.9632 15.9344 31.4257 16.3977C33.7755 16.7803 34.444 17.2835 34.444 18.6117C34.444 19.94 33.3098 20.8258 31.71 20.8258C29.2595 20.8258 28.6717 19.6181 28.4904 18.1692H28.4824L25.9864 18.8434C26.4041 21.202 28.0974 22.8385 31.71 22.8385C34.9097 22.8385 37.0359 20.8857 37.0359 18.3897C37.0359 15.5119 35.2739 14.5462 31.8722 14.083V14.0838ZM40.48 16.2771C40.7228 14.6461 41.7148 13.6605 43.1932 13.6605C44.7124 13.6605 45.6437 14.4656 45.7651 16.2771H40.48ZM43.1932 11.8897C40.1764 11.8897 37.928 14.0622 37.928 17.3234V17.4847C37.928 20.8058 40.1764 22.8385 43.2946 22.8385C46.0087 22.8385 47.8114 21.6301 48.1549 19.4168H45.7859C45.6029 20.4432 44.8338 21.0271 43.3545 21.0271C41.5327 21.0271 40.5199 19.8993 40.4392 17.9073H48.1948V17.2028C48.1948 13.4392 45.8258 11.8897 43.1932 11.8897ZM54.7171 20.9663C52.9144 20.9663 51.7802 19.7587 51.7802 17.4648V17.3026C51.7802 15.1293 52.9751 13.841 54.6556 13.841C55.952 13.841 56.8841 14.4248 57.0861 15.833H59.4559C59.1724 12.9352 56.9639 11.8889 54.6157 11.8889C51.6588 11.8889 49.2699 14.0023 49.2699 17.3434V17.5031C49.2699 20.8649 51.5782 22.8377 54.6157 22.8377C57.4911 22.8377 59.3345 21.1269 59.5166 18.7116H57.2682C57.1269 20.2012 56.0135 20.9655 54.7171 20.9655V20.9663ZM63.3936 19.4767V13.9424H65.7227V12.1109H63.3936V8.72757L60.9432 9.3905V19.6988C60.9432 21.6908 62.0366 22.8178 64.1428 22.8178C64.892 22.8178 65.4184 22.698 65.8034 22.5566V20.6237C65.4599 20.7651 65.0941 20.8258 64.6085 20.8258C63.8393 20.8258 63.3936 20.4025 63.3936 19.4767Z" fill="white"/>
</svg>
