<svg width="134" height="22" viewBox="0 0 134 22" fill="none" xmlns="http://www.w3.org/2000/svg">
<path fill-rule="evenodd" clip-rule="evenodd" d="M15.8273 20.8804C14.0564 19.7713 12.7523 15.9442 12.7523 11.3961C12.7523 11.2292 12.753 11.0644 12.7572 10.9004L12.7586 10.9032C7.83375 10.1286 4.27565 8.00839 4.1841 5.50018L4.17002 5.52975C2.9645 7.02749 2.27725 8.75902 2.27725 10.6032C2.27725 16.0323 8.23653 20.4811 15.7957 20.8741L15.8273 20.8804ZM0 10.9996C0 4.92488 7.55984 0 16.8857 0C26.2109 0 33.7714 4.92488 33.7714 10.9996C33.7714 17.0744 26.2109 22 16.8857 22C7.55984 22 0 17.0744 0 10.9996ZM16.8857 1.58717C18.6862 1.58717 20.2178 4.3179 20.7846 8.1288L20.7867 8.12316C24.2892 7.57744 26.7418 6.31982 26.7418 4.85658C26.7418 2.89268 22.3281 1.30128 16.8857 1.30128C11.4426 1.30128 7.02961 2.89268 7.02961 4.85658C7.02961 6.31982 9.48148 7.57744 12.9847 8.12316L12.9868 8.1288C13.5543 4.3179 15.0859 1.58717 16.8857 1.58717ZM17.9757 20.8741C25.5349 20.4811 31.4949 16.0323 31.4949 10.6032C31.4949 8.75902 30.8062 7.02749 29.6014 5.52975L29.5866 5.50018C29.4958 8.00839 25.9376 10.1286 21.0121 10.9032L21.0142 10.9004C21.0177 11.0644 21.0198 11.2292 21.0198 11.3961C21.0198 15.9442 19.7143 19.7713 17.944 20.8804L17.9757 20.8741ZM16.8857 8.41187C17.692 8.41187 18.4764 8.37736 19.2263 8.31117L19.2256 8.31258C18.8517 5.86986 17.9455 4.14608 16.8857 4.14608C15.8259 4.14608 14.919 5.86986 14.5458 8.31258L14.5444 8.31117C15.295 8.37736 16.0794 8.41187 16.8857 8.41187ZM16.8857 17.4575C18.2412 17.4575 19.3467 14.6366 19.4052 11.0989L19.4129 11.1018C18.5961 11.1771 17.7511 11.2165 16.8857 11.2165C16.0203 11.2165 15.1753 11.1771 14.3585 11.1018L14.3662 11.0989C14.4247 14.6366 15.5302 17.4575 16.8857 17.4575Z" fill="white"/>
<path fill-rule="evenodd" clip-rule="evenodd" d="M86.162 10.9996C86.162 6.35637 89.9264 2.59265 94.5697 2.59265C99.2136 2.59265 102.978 6.35637 102.978 10.9996C102.978 15.6435 99.2136 19.4065 94.5697 19.4065C89.9264 19.4065 86.162 15.6435 86.162 10.9996ZM94.5697 16.3237C97.1624 16.3237 99.2643 13.9402 99.2643 10.9996C99.2643 8.05973 97.1624 5.67545 94.5697 5.67545C91.977 5.67545 89.8757 8.05973 89.8757 10.9996C89.8757 13.9402 91.977 16.3237 94.5697 16.3237Z" fill="white"/>
<path fill-rule="evenodd" clip-rule="evenodd" d="M112.517 6.0952V19.0256H108.974V6.0952H108.986H104.033V3.17224H117.458V6.0952H112.517Z" fill="white"/>
<path fill-rule="evenodd" clip-rule="evenodd" d="M121.744 15.4584L121.74 15.4619L120.382 19.0256H116.244L122.785 3.17224H127.194L133.734 19.0256H129.597L128.238 15.4619L128.235 15.4584H121.744ZM124.99 12.7826H127.219L127.217 12.7833L125.006 6.98103H124.975L122.761 12.7833L122.76 12.7826H124.99Z" fill="white"/>
<path fill-rule="evenodd" clip-rule="evenodd" d="M47.2186 6.0952V19.0256H43.676V6.0952H43.6886H38.7342V3.17224H52.1604V6.0952H47.2186Z" fill="white"/>
<path fill-rule="evenodd" clip-rule="evenodd" d="M53.0664 10.9996C53.0664 6.35637 56.8308 2.59265 61.4748 2.59265C66.118 2.59265 69.8824 6.35637 69.8824 10.9996C69.8824 15.6435 66.118 19.4065 61.4748 19.4065C56.8308 19.4065 53.0664 15.6435 53.0664 10.9996ZM61.4748 16.3237C64.0668 16.3237 66.1687 13.9402 66.1687 10.9996C66.1687 8.05973 64.0668 5.67545 61.4748 5.67545C58.882 5.67545 56.7801 8.05973 56.7801 10.9996C56.7801 13.9402 58.882 16.3237 61.4748 16.3237Z" fill="white"/>
<path fill-rule="evenodd" clip-rule="evenodd" d="M78.0215 19.0256H79.8178V13.0058L85.9982 3.17224H81.8613L78.0215 9.83568L74.1824 3.17224H70.0455L76.2252 13.0058V19.0256H78.0215Z" fill="white"/>
</svg>
